<svg data-v-423bf9ae="" xmlns="http://www.w3.org/2000/svg" viewBox="0 0 553 90" class="iconLeft"><!----><!----><!----><g data-v-423bf9ae="" id="d4ff90f7-40b4-476e-9ff7-74509d3f91f4" fill="#286AC6" transform="matrix(4.827031257192837,0,0,4.827031257192837,167.163659043078,-0.6878515858767145)"><path d="M5.87 3.35L5.87 9.93L5.87 9.93Q5.87 10.63 5.72 11.23L5.72 11.23L5.72 11.23Q5.57 11.83 5.20 12.29L5.20 12.29L5.20 12.29Q4.83 12.74 4.21 13.00L4.21 13.00L4.21 13.00Q3.58 13.26 2.65 13.26L2.65 13.26L2.65 13.26Q2.17 13.26 1.77 13.18L1.77 13.18L1.77 13.18Q1.37 13.10 1.05 12.98L1.05 12.98L1.05 12.98Q0.73 12.87 0.49 12.73L0.49 12.73L0.49 12.73Q0.25 12.60 0.11 12.47L0.11 12.47L0.64 11.40L0.64 11.40Q0.94 11.61 1.41 11.84L1.41 11.84L1.41 11.84Q1.88 12.07 2.58 12.07L2.58 12.07L2.58 12.07Q3.58 12.07 4.05 11.56L4.05 11.56L4.05 11.56Q4.51 11.05 4.51 9.80L4.51 9.80L4.51 3.35L5.87 3.35ZM10.58 12.11L10.58 12.11L10.58 12.11Q11.05 12.11 11.40 12.09L11.40 12.09L11.40 12.09Q11.76 12.07 12.00 12.01L12.00 12.01L12.00 9.84L12.00 9.84Q11.86 9.77 11.54 9.72L11.54 9.72L11.54 9.72Q11.23 9.67 10.78 9.67L10.78 9.67L10.78 9.67Q10.49 9.67 10.16 9.72L10.16 9.72L10.16 9.72Q9.83 9.76 9.55 9.89L9.55 9.89L9.55 9.89Q9.28 10.02 9.10 10.25L9.10 10.25L9.10 10.25Q8.92 10.49 8.92 10.86L8.92 10.86L8.92 10.86Q8.92 11.56 9.37 11.84L9.37 11.84L9.37 11.84Q9.81 12.11 10.58 12.11ZM10.47 5.59L10.47 5.59L10.47 5.59Q11.26 5.59 11.79 5.79L11.79 5.79L11.79 5.79Q12.33 5.99 12.66 6.36L12.66 6.36L12.66 6.36Q12.99 6.73 13.13 7.25L13.13 7.25L13.13 7.25Q13.27 7.76 13.27 8.37L13.27 8.37L13.27 12.92L13.27 12.92Q13.10 12.95 12.80 13.00L12.80 13.00L12.80 13.00Q12.50 13.05 12.12 13.09L12.12 13.09L12.12 13.09Q11.75 13.13 11.30 13.17L11.30 13.17L11.30 13.17Q10.86 13.20 10.43 13.20L10.43 13.20L10.43 13.20Q9.81 13.20 9.30 13.08L9.30 13.08L9.30 13.08Q8.78 12.95 8.40 12.68L8.40 12.68L8.40 12.68Q8.02 12.40 7.81 11.96L7.81 11.96L7.81 11.96Q7.60 11.51 7.60 10.88L7.60 10.88L7.60 10.88Q7.60 10.28 7.85 9.84L7.85 9.84L7.85 9.84Q8.09 9.41 8.51 9.14L8.51 9.14L8.51 9.14Q8.93 8.88 9.49 8.75L9.49 8.75L9.49 8.75Q10.05 8.62 10.67 8.62L10.67 8.62L10.67 8.62Q10.86 8.62 11.07 8.64L11.07 8.64L11.07 8.64Q11.28 8.67 11.47 8.70L11.47 8.70L11.47 8.70Q11.66 8.74 11.80 8.76L11.80 8.76L11.80 8.76Q11.94 8.79 12.00 8.81L12.00 8.81L12.00 8.44L12.00 8.44Q12.00 8.12 11.93 7.80L11.93 7.80L11.93 7.80Q11.86 7.49 11.68 7.25L11.68 7.25L11.68 7.25Q11.49 7 11.18 6.85L11.18 6.85L11.18 6.85Q10.86 6.71 10.36 6.71L10.36 6.71L10.36 6.71Q9.72 6.71 9.23 6.80L9.23 6.80L9.23 6.80Q8.75 6.89 8.51 6.99L8.51 6.99L8.36 5.91L8.36 5.91Q8.61 5.80 9.20 5.69L9.20 5.69L9.20 5.69Q9.79 5.59 10.47 5.59ZM20.48 9.42L20.48 9.42L20.48 9.42Q20.48 8.15 19.85 7.46L19.85 7.46L19.85 7.46Q19.22 6.78 18.17 6.78L18.17 6.78L18.17 6.78Q17.58 6.78 17.25 6.82L17.25 6.82L17.25 6.82Q16.93 6.86 16.73 6.92L16.73 6.92L16.73 11.51L16.73 11.51Q16.97 11.70 17.42 11.89L17.42 11.89L17.42 11.89Q17.86 12.07 18.40 12.07L18.40 12.07L18.40 12.07Q18.96 12.07 19.36 11.87L19.36 11.87L19.36 11.87Q19.75 11.66 20.01 11.30L20.01 11.30L20.01 11.30Q20.26 10.95 20.37 10.46L20.37 10.46L20.37 10.46Q20.48 9.98 20.48 9.42ZM21.84 9.42L21.84 9.42L21.84 9.42Q21.84 10.25 21.62 10.95L21.62 10.95L21.62 10.95Q21.41 11.65 20.99 12.15L20.99 12.15L20.99 12.15Q20.57 12.66 19.96 12.94L19.96 12.94L19.96 12.94Q19.35 13.22 18.56 13.22L18.56 13.22L18.56 13.22Q17.93 13.22 17.45 13.05L17.45 13.05L17.45 13.05Q16.97 12.88 16.73 12.73L16.73 12.73L16.73 15.64L15.43 15.64L15.43 5.99L15.43 5.99Q15.89 5.88 16.58 5.75L16.58 5.75L16.58 5.75Q17.28 5.61 18.19 5.61L18.19 5.61L18.19 5.61Q19.03 5.61 19.70 5.88L19.70 5.88L19.70 5.88Q20.37 6.15 20.85 6.64L20.85 6.64L20.85 6.64Q21.32 7.13 21.58 7.83L21.58 7.83L21.58 7.83Q21.84 8.54 21.84 9.42ZM29.57 3.25L29.57 3.25L29.57 3.25Q31.61 3.25 32.71 4.03L32.71 4.03L32.71 4.03Q33.81 4.80 33.81 6.34L33.81 6.34L33.81 6.34Q33.81 7.18 33.51 7.78L33.51 7.78L33.51 7.78Q33.21 8.37 32.64 8.74L32.64 8.74L32.64 8.74Q32.07 9.11 31.26 9.28L31.26 9.28L31.26 9.28Q30.45 9.45 29.43 9.45L29.43 9.45L28.35 9.45L28.35 13.05L26.99 13.05L26.99 3.49L26.99 3.49Q27.57 3.35 28.27 3.30L28.27 3.30L28.27 3.30Q28.98 3.25 29.57 3.25ZM29.68 4.44L29.68 4.44L29.68 4.44Q28.81 4.44 28.35 4.48L28.35 4.48L28.35 8.29L29.37 8.29L29.37 8.29Q30.07 8.29 30.63 8.20L30.63 8.20L30.63 8.20Q31.19 8.11 31.58 7.89L31.58 7.89L31.58 7.89Q31.96 7.67 32.17 7.29L32.17 7.29L32.17 7.29Q32.38 6.92 32.38 6.33L32.38 6.33L32.38 6.33Q32.38 5.77 32.17 5.40L32.17 5.40L32.17 5.40Q31.95 5.04 31.58 4.82L31.58 4.82L31.58 4.82Q31.21 4.61 30.72 4.52L30.72 4.52L30.72 4.52Q30.23 4.44 29.68 4.44ZM38.11 5.61L38.11 5.61L38.11 5.61Q38.28 5.61 38.49 5.63L38.49 5.63L38.49 5.63Q38.71 5.66 38.92 5.69L38.92 5.69L38.92 5.69Q39.13 5.73 39.31 5.76L39.31 5.76L39.31 5.76Q39.48 5.80 39.56 5.82L39.56 5.82L39.34 6.96L39.34 6.96Q39.19 6.90 38.83 6.83L38.83 6.83L38.83 6.83Q38.47 6.75 37.91 6.75L37.91 6.75L37.91 6.75Q37.55 6.75 37.19 6.83L37.19 6.83L37.19 6.83Q36.83 6.90 36.72 6.93L36.72 6.93L36.72 13.05L35.42 13.05L35.42 6.08L35.42 6.08Q35.88 5.91 36.57 5.76L36.57 5.76L36.57 5.76Q37.25 5.61 38.11 5.61ZM47.25 9.41L47.25 9.41L47.25 9.41Q47.25 10.28 47.00 10.98L47.00 10.98L47.00 10.98Q46.75 11.68 46.29 12.18L46.29 12.18L46.29 12.18Q45.84 12.68 45.21 12.96L45.21 12.96L45.21 12.96Q44.58 13.23 43.83 13.23L43.83 13.23L43.83 13.23Q43.09 13.23 42.46 12.96L42.46 12.96L42.46 12.96Q41.83 12.68 41.38 12.18L41.38 12.18L41.38 12.18Q40.92 11.68 40.67 10.98L40.67 10.98L40.67 10.98Q40.42 10.28 40.42 9.41L40.42 9.41L40.42 9.41Q40.42 8.55 40.67 7.85L40.67 7.85L40.67 7.85Q40.92 7.14 41.38 6.64L41.38 6.64L41.38 6.64Q41.83 6.13 42.46 5.86L42.46 5.86L42.46 5.86Q43.09 5.59 43.83 5.59L43.83 5.59L43.83 5.59Q44.58 5.59 45.21 5.86L45.21 5.86L45.21 5.86Q45.84 6.13 46.29 6.64L46.29 6.64L46.29 6.64Q46.75 7.14 47.00 7.85L47.00 7.85L47.00 7.85Q47.25 8.55 47.25 9.41ZM45.89 9.41L45.89 9.41L45.89 9.41Q45.89 8.18 45.34 7.46L45.34 7.46L45.34 7.46Q44.79 6.73 43.83 6.73L43.83 6.73L43.83 6.73Q42.88 6.73 42.33 7.46L42.33 7.46L42.33 7.46Q41.78 8.18 41.78 9.41L41.78 9.41L41.78 9.41Q41.78 10.64 42.33 11.36L42.33 11.36L42.33 11.36Q42.88 12.08 43.83 12.08L43.83 12.08L43.83 12.08Q44.79 12.08 45.34 11.36L45.34 11.36L45.34 11.36Q45.89 10.64 45.89 9.41ZM53.65 12.63L53.65 12.32L53.65 12.32Q53.48 12.43 53.00 12.61L53.00 12.61L53.00 12.61Q52.51 12.78 51.87 12.78L51.87 12.78L51.87 12.78Q51.21 12.78 50.63 12.57L50.63 12.57L50.63 12.57Q50.05 12.36 49.62 11.92L49.62 11.92L49.62 11.92Q49.18 11.48 48.93 10.82L48.93 10.82L48.93 10.82Q48.68 10.16 48.68 9.25L48.68 9.25L48.68 9.25Q48.68 8.46 48.92 7.79L48.92 7.79L48.92 7.79Q49.15 7.13 49.61 6.64L49.61 6.64L49.61 6.64Q50.06 6.16 50.72 5.89L50.72 5.89L50.72 5.89Q51.38 5.61 52.21 5.61L52.21 5.61L52.21 5.61Q53.12 5.61 53.80 5.75L53.80 5.75L53.80 5.75Q54.47 5.88 54.94 5.99L54.94 5.99L54.94 12.49L54.94 12.49Q54.94 14.17 54.07 14.92L54.07 14.92L54.07 14.92Q53.20 15.68 51.44 15.68L51.44 15.68L51.44 15.68Q50.75 15.68 50.14 15.57L50.14 15.57L50.14 15.57Q49.53 15.46 49.08 15.30L49.08 15.30L49.32 14.17L49.32 14.17Q49.71 14.32 50.28 14.44L50.28 14.44L50.28 14.44Q50.85 14.56 51.46 14.56L51.46 14.56L51.46 14.56Q52.63 14.56 53.14 14.10L53.14 14.10L53.14 14.10Q53.65 13.64 53.65 12.63L53.65 12.63ZM53.63 11.17L53.63 6.92L53.63 6.92Q53.44 6.86 53.11 6.81L53.11 6.81L53.11 6.81Q52.78 6.76 52.22 6.76L52.22 6.76L52.22 6.76Q51.17 6.76 50.60 7.45L50.60 7.45L50.60 7.45Q50.04 8.13 50.04 9.27L50.04 9.27L50.04 9.27Q50.04 9.90 50.20 10.35L50.20 10.35L50.20 10.35Q50.36 10.79 50.63 11.09L50.63 11.09L50.63 11.09Q50.90 11.38 51.26 11.52L51.26 11.52L51.26 11.52Q51.62 11.66 52.00 11.66L52.00 11.66L52.00 11.66Q52.51 11.66 52.95 11.52L52.95 11.52L52.95 11.52Q53.38 11.37 53.63 11.17L53.63 11.17ZM59.86 5.61L59.86 5.61L59.86 5.61Q60.03 5.61 60.25 5.63L60.25 5.63L60.25 5.63Q60.47 5.66 60.68 5.69L60.68 5.69L60.68 5.69Q60.89 5.73 61.06 5.76L61.06 5.76L61.06 5.76Q61.24 5.80 61.32 5.82L61.32 5.82L61.10 6.96L61.10 6.96Q60.94 6.90 60.59 6.83L60.59 6.83L60.59 6.83Q60.23 6.75 59.67 6.75L59.67 6.75L59.67 6.75Q59.30 6.75 58.95 6.83L58.95 6.83L58.95 6.83Q58.59 6.90 58.48 6.93L58.48 6.93L58.48 13.05L57.18 13.05L57.18 6.08L57.18 6.08Q57.64 5.91 58.32 5.76L58.32 5.76L58.32 5.76Q59.01 5.61 59.86 5.61ZM65.04 12.11L65.04 12.11L65.04 12.11Q65.51 12.11 65.86 12.09L65.86 12.09L65.86 12.09Q66.22 12.07 66.46 12.01L66.46 12.01L66.46 9.84L66.46 9.84Q66.32 9.77 66.00 9.72L66.00 9.72L66.00 9.72Q65.69 9.67 65.24 9.67L65.24 9.67L65.24 9.67Q64.95 9.67 64.62 9.72L64.62 9.72L64.62 9.72Q64.29 9.76 64.02 9.89L64.02 9.89L64.02 9.89Q63.74 10.02 63.56 10.25L63.56 10.25L63.56 10.25Q63.38 10.49 63.38 10.86L63.38 10.86L63.38 10.86Q63.38 11.56 63.83 11.84L63.83 11.84L63.83 11.84Q64.27 12.11 65.04 12.11ZM64.93 5.59L64.93 5.59L64.93 5.59Q65.72 5.59 66.26 5.79L66.26 5.79L66.26 5.79Q66.79 5.99 67.12 6.36L67.12 6.36L67.12 6.36Q67.45 6.73 67.59 7.25L67.59 7.25L67.59 7.25Q67.73 7.76 67.73 8.37L67.73 8.37L67.73 12.92L67.73 12.92Q67.56 12.95 67.26 13.00L67.26 13.00L67.26 13.00Q66.96 13.05 66.58 13.09L66.58 13.09L66.58 13.09Q66.21 13.13 65.77 13.17L65.77 13.17L65.77 13.17Q65.32 13.20 64.89 13.20L64.89 13.20L64.89 13.20Q64.27 13.20 63.76 13.08L63.76 13.08L63.76 13.08Q63.24 12.95 62.86 12.68L62.86 12.68L62.86 12.68Q62.48 12.40 62.27 11.96L62.27 11.96L62.27 11.96Q62.06 11.51 62.06 10.88L62.06 10.88L62.06 10.88Q62.06 10.28 62.31 9.84L62.31 9.84L62.31 9.84Q62.55 9.41 62.97 9.14L62.97 9.14L62.97 9.14Q63.39 8.88 63.95 8.75L63.95 8.75L63.95 8.75Q64.51 8.62 65.13 8.62L65.13 8.62L65.13 8.62Q65.32 8.62 65.53 8.64L65.53 8.64L65.53 8.64Q65.74 8.67 65.93 8.70L65.93 8.70L65.93 8.70Q66.12 8.74 66.26 8.76L66.26 8.76L66.26 8.76Q66.40 8.79 66.46 8.81L66.46 8.81L66.46 8.44L66.46 8.44Q66.46 8.12 66.39 7.80L66.39 7.80L66.39 7.80Q66.32 7.49 66.14 7.25L66.14 7.25L66.14 7.25Q65.95 7 65.64 6.85L65.64 6.85L65.64 6.85Q65.32 6.71 64.82 6.71L64.82 6.71L64.82 6.71Q64.18 6.71 63.69 6.80L63.69 6.80L63.69 6.80Q63.21 6.89 62.97 6.99L62.97 6.99L62.82 5.91L62.82 5.91Q63.07 5.80 63.66 5.69L63.66 5.69L63.66 5.69Q64.25 5.59 64.93 5.59ZM69.89 13.05L69.89 5.98L69.89 5.98Q70.34 5.87 71.07 5.74L71.07 5.74L71.07 5.74Q71.81 5.61 72.77 5.61L72.77 5.61L72.77 5.61Q73.47 5.61 73.95 5.80L73.95 5.80L73.95 5.80Q74.42 5.99 74.75 6.36L74.75 6.36L74.75 6.36Q74.84 6.29 75.05 6.16L75.05 6.16L75.05 6.16Q75.26 6.03 75.57 5.92L75.57 5.92L75.57 5.92Q75.88 5.80 76.26 5.71L76.26 5.71L76.26 5.71Q76.64 5.61 77.07 5.61L77.07 5.61L77.07 5.61Q77.91 5.61 78.44 5.86L78.44 5.86L78.44 5.86Q78.97 6.10 79.28 6.55L79.28 6.55L79.28 6.55Q79.58 7 79.68 7.62L79.68 7.62L79.68 7.62Q79.79 8.23 79.79 8.96L79.79 8.96L79.79 13.05L78.48 13.05L78.48 9.24L78.48 9.24Q78.48 8.60 78.42 8.13L78.42 8.13L78.42 8.13Q78.36 7.67 78.18 7.36L78.18 7.36L78.18 7.36Q78.01 7.06 77.71 6.91L77.71 6.91L77.71 6.91Q77.41 6.76 76.93 6.76L76.93 6.76L76.93 6.76Q76.27 6.76 75.84 6.94L75.84 6.94L75.84 6.94Q75.42 7.11 75.26 7.25L75.26 7.25L75.26 7.25Q75.38 7.62 75.43 8.05L75.43 8.05L75.43 8.05Q75.49 8.48 75.49 8.96L75.49 8.96L75.49 13.05L74.19 13.05L74.19 9.24L74.19 9.24Q74.19 8.60 74.12 8.13L74.12 8.13L74.12 8.13Q74.05 7.67 73.87 7.36L73.87 7.36L73.87 7.36Q73.70 7.06 73.39 6.91L73.39 6.91L73.39 6.91Q73.09 6.76 72.63 6.76L72.63 6.76L72.63 6.76Q72.44 6.76 72.21 6.78L72.21 6.78L72.21 6.78Q71.99 6.79 71.78 6.81L71.78 6.81L71.78 6.81Q71.58 6.83 71.41 6.86L71.41 6.86L71.41 6.86Q71.25 6.89 71.19 6.90L71.19 6.90L71.19 13.05L69.89 13.05Z"></path></g><!----><g data-v-423bf9ae="" id="c13a53c3-f70f-4650-a0d4-e7e57ca91d79" transform="matrix(1.1538461538461537,0,0,1.1538461538461537,0.15283793669480872,-28.84615384615384)" stroke="none" fill="#3D5A7A"><path d="M74.313 25l-28.094 78h8.469l28.094-78h-8.469zM38 36.25l-2.188 1.406-34 22-1.813 1.156v4.25l1.688 1.219 34 24L38 91.875v-9.781L11.156 63.125 38 45.75v-9.5zm52 0v9.5l26.844 17.375L90 82.094v9.781l2.313-1.594 34-24 1.688-1.219v-4.25l-1.813-1.156-34-22L90 36.25z"></path></g><!----></svg>